<svg xmlns="http://www.w3.org/2000/svg" xmlns:xlink="http://www.w3.org/1999/xlink" width="100" zoomAndPan="magnify" viewBox="0 0 75 37.5" height="50" preserveAspectRatio="xMidYMid meet" version="1.0"><defs><g/><clipPath id="705b0f7b82"><path d="M 16 1 L 55 1 L 55 37 L 16 37 Z M 16 1 " clip-rule="nonzero"/></clipPath><clipPath id="c5bdff1ec7"><path d="M 30.617188 -6.640625 L 54.441406 1.460938 L 39.90625 44.203125 L 16.082031 36.101562 Z M 30.617188 -6.640625 " clip-rule="nonzero"/></clipPath><clipPath id="b9614e1be8"><path d="M 30.617188 -6.640625 L 54.441406 1.460938 L 39.90625 44.203125 L 16.082031 36.101562 Z M 30.617188 -6.640625 " clip-rule="nonzero"/></clipPath><clipPath id="eef0ce333c"><path d="M 15 1 L 54 1 L 54 37 L 15 37 Z M 15 1 " clip-rule="nonzero"/></clipPath><clipPath id="4242a113af"><path d="M 29.679688 -6.640625 L 53.503906 1.460938 L 38.96875 44.203125 L 15.144531 36.101562 Z M 29.679688 -6.640625 " clip-rule="nonzero"/></clipPath><clipPath id="ba72961d83"><path d="M 29.679688 -6.640625 L 53.503906 1.460938 L 38.96875 44.203125 L 15.144531 36.101562 Z M 29.679688 -6.640625 " clip-rule="nonzero"/></clipPath></defs><g fill="#eeba2b" fill-opacity="1"><g transform="translate(10.216216, 25.156402)"><g><path d="M 12.578125 -2.0625 L 0.84375 -7.28125 L 0.84375 -9.28125 L 12.578125 -15.15625 L 12.578125 -11.703125 L 5.375 -8.421875 L 12.578125 -5.5 Z M 12.578125 -2.0625 "/></g></g></g><g fill="#eeba2b" fill-opacity="1"><g transform="translate(52.404264, 26.330157)"><g><path d="M 0.78125 -5.109375 L 7.484375 -7.84375 L 0.78125 -10.90625 L 0.78125 -14.125 L 11.71875 -8.640625 L 11.71875 -6.78125 L 0.78125 -1.921875 Z M 0.78125 -5.109375 "/></g></g></g><g clip-path="url(#705b0f7b82)"><g clip-path="url(#c5bdff1ec7)"><g clip-path="url(#b9614e1be8)"><path fill="#eeba2b" d="M 54.203125 1.464844 L 33.597656 12.699219 L 41.375 12.980469 L 26.917969 22.042969 L 32.902344 22.335938 L 16.066406 36.148438 L 40.890625 20.714844 L 33.398438 20.226562 L 48.445312 10.992188 L 41.164062 10.777344 Z M 54.203125 1.464844 " fill-opacity="1" fill-rule="nonzero"/></g></g></g><g clip-path="url(#eef0ce333c)"><g clip-path="url(#4242a113af)"><g clip-path="url(#ba72961d83)"><path fill="#2b46bd" d="M 53.269531 1.464844 L 32.664062 12.699219 L 40.4375 12.980469 L 25.980469 22.042969 L 31.96875 22.335938 L 15.128906 36.148438 L 39.957031 20.714844 L 32.460938 20.226562 L 47.507812 10.992188 L 40.226562 10.777344 Z M 53.269531 1.464844 " fill-opacity="1" fill-rule="nonzero"/></g></g></g><g fill="#2b46bd" fill-opacity="1"><g transform="translate(10.216216, 25.98001)"><g><path d="M 12.578125 -2.0625 L 0.84375 -7.28125 L 0.84375 -9.28125 L 12.578125 -15.15625 L 12.578125 -11.703125 L 5.375 -8.421875 L 12.578125 -5.5 Z M 12.578125 -2.0625 "/></g></g></g><g fill="#2b46bd" fill-opacity="1"><g transform="translate(52.404264, 25.371522)"><g><path d="M 0.78125 -5.109375 L 7.484375 -7.84375 L 0.78125 -10.90625 L 0.78125 -14.125 L 11.71875 -8.640625 L 11.71875 -6.78125 L 0.78125 -1.921875 Z M 0.78125 -5.109375 "/></g></g></g><g fill="#2b46bd" fill-opacity="1"><g transform="translate(23.345947, 14.022074)"><g><path d="M 0.546875 0 L 0.546875 -5.015625 L 1.90625 -5.015625 L 1.90625 0 Z M 0.546875 0 "/></g></g></g><g fill="#2b46bd" fill-opacity="1"><g transform="translate(25.787286, 14.022074)"><g><path d="M 5.234375 0 L 5.234375 -2.109375 C 5.234375 -2.367188 5.195312 -2.5625 5.125 -2.6875 C 5.050781 -2.820312 4.9375 -2.890625 4.78125 -2.890625 C 4.570312 -2.890625 4.421875 -2.800781 4.328125 -2.625 C 4.234375 -2.457031 4.1875 -2.1875 4.1875 -1.8125 L 4.1875 0 L 2.84375 0 L 2.84375 -2.109375 C 2.84375 -2.367188 2.804688 -2.5625 2.734375 -2.6875 C 2.671875 -2.820312 2.5625 -2.890625 2.40625 -2.890625 C 2.195312 -2.890625 2.039062 -2.796875 1.9375 -2.609375 C 1.84375 -2.429688 1.796875 -2.128906 1.796875 -1.703125 L 1.796875 0 L 0.46875 0 L 0.46875 -3.875 L 1.46875 -3.875 L 1.640625 -3.40625 L 1.71875 -3.40625 C 1.820312 -3.582031 1.96875 -3.71875 2.15625 -3.8125 C 2.351562 -3.90625 2.578125 -3.953125 2.828125 -3.953125 C 3.390625 -3.953125 3.785156 -3.78125 4.015625 -3.4375 L 4.125 -3.4375 C 4.226562 -3.59375 4.378906 -3.71875 4.578125 -3.8125 C 4.773438 -3.90625 4.988281 -3.953125 5.21875 -3.953125 C 5.675781 -3.953125 6.015625 -3.832031 6.234375 -3.59375 C 6.453125 -3.363281 6.5625 -3.007812 6.5625 -2.53125 L 6.5625 0 Z M 5.234375 0 "/></g></g></g><g fill="#2b46bd" fill-opacity="1"><g transform="translate(32.799715, 14.022074)"><g><path d="M 2.796875 0.0625 C 2.597656 0.0625 2.421875 0.03125 2.265625 -0.03125 C 2.109375 -0.09375 1.953125 -0.207031 1.796875 -0.375 L 1.734375 -0.375 C 1.773438 -0.101562 1.796875 0.0625 1.796875 0.125 L 1.796875 1.6875 L 0.46875 1.6875 L 0.46875 -3.875 L 1.546875 -3.875 L 1.734375 -3.390625 L 1.796875 -3.390625 C 2.046875 -3.765625 2.390625 -3.953125 2.828125 -3.953125 C 3.265625 -3.953125 3.601562 -3.769531 3.84375 -3.40625 C 4.082031 -3.050781 4.203125 -2.566406 4.203125 -1.953125 C 4.203125 -1.328125 4.078125 -0.832031 3.828125 -0.46875 C 3.578125 -0.113281 3.234375 0.0625 2.796875 0.0625 Z M 2.34375 -2.890625 C 2.144531 -2.890625 2.003906 -2.820312 1.921875 -2.6875 C 1.847656 -2.550781 1.804688 -2.34375 1.796875 -2.0625 L 1.796875 -1.953125 C 1.796875 -1.617188 1.835938 -1.378906 1.921875 -1.234375 C 2.015625 -1.085938 2.160156 -1.015625 2.359375 -1.015625 C 2.523438 -1.015625 2.644531 -1.085938 2.71875 -1.234375 C 2.800781 -1.378906 2.84375 -1.625 2.84375 -1.96875 C 2.84375 -2.300781 2.800781 -2.535156 2.71875 -2.671875 C 2.644531 -2.816406 2.519531 -2.890625 2.34375 -2.890625 Z M 2.34375 -2.890625 "/></g></g></g><g fill="#2b46bd" fill-opacity="1"><g transform="translate(37.309173, 14.022074)"><g><path d="M 3.234375 0 L 3.0625 -0.484375 L 2.984375 -0.484375 C 2.867188 -0.304688 2.710938 -0.171875 2.515625 -0.078125 C 2.316406 0.015625 2.082031 0.0625 1.8125 0.0625 C 1.382812 0.0625 1.050781 -0.0546875 0.8125 -0.296875 C 0.570312 -0.546875 0.453125 -0.898438 0.453125 -1.359375 L 0.453125 -3.875 L 1.796875 -3.875 L 1.796875 -1.765625 C 1.796875 -1.503906 1.832031 -1.304688 1.90625 -1.171875 C 1.976562 -1.046875 2.09375 -0.984375 2.25 -0.984375 C 2.488281 -0.984375 2.65625 -1.070312 2.75 -1.25 C 2.84375 -1.4375 2.890625 -1.75 2.890625 -2.1875 L 2.890625 -3.875 L 4.234375 -3.875 L 4.234375 0 Z M 3.234375 0 "/></g></g></g><g fill="#2b46bd" fill-opacity="1"><g transform="translate(42.006952, 14.022074)"><g><path d="M 1.796875 0 L 0.46875 0 L 0.46875 -5.328125 L 1.796875 -5.328125 Z M 1.796875 0 "/></g></g></g><g fill="#2b46bd" fill-opacity="1"><g transform="translate(44.273665, 14.022074)"><g><path d="M 3.453125 -1.1875 C 3.453125 -0.769531 3.3125 -0.457031 3.03125 -0.25 C 2.75 -0.0390625 2.34375 0.0625 1.8125 0.0625 C 1.53125 0.0625 1.28125 0.046875 1.0625 0.015625 C 0.851562 -0.015625 0.640625 -0.0664062 0.421875 -0.140625 L 0.421875 -1.21875 C 0.617188 -1.125 0.84375 -1.046875 1.09375 -0.984375 C 1.34375 -0.929688 1.566406 -0.90625 1.765625 -0.90625 C 2.054688 -0.90625 2.203125 -0.972656 2.203125 -1.109375 C 2.203125 -1.171875 2.160156 -1.226562 2.078125 -1.28125 C 1.992188 -1.332031 1.753906 -1.4375 1.359375 -1.59375 C 1.003906 -1.738281 0.753906 -1.90625 0.609375 -2.09375 C 0.472656 -2.28125 0.40625 -2.519531 0.40625 -2.8125 C 0.40625 -3.164062 0.546875 -3.441406 0.828125 -3.640625 C 1.109375 -3.847656 1.5 -3.953125 2 -3.953125 C 2.257812 -3.953125 2.5 -3.921875 2.71875 -3.859375 C 2.945312 -3.804688 3.179688 -3.726562 3.421875 -3.625 L 3.0625 -2.75 C 2.882812 -2.832031 2.695312 -2.898438 2.5 -2.953125 C 2.300781 -3.015625 2.140625 -3.046875 2.015625 -3.046875 C 1.796875 -3.046875 1.6875 -2.992188 1.6875 -2.890625 C 1.6875 -2.816406 1.722656 -2.753906 1.796875 -2.703125 C 1.878906 -2.660156 2.101562 -2.566406 2.46875 -2.421875 C 2.738281 -2.316406 2.9375 -2.207031 3.0625 -2.09375 C 3.195312 -1.988281 3.296875 -1.863281 3.359375 -1.71875 C 3.421875 -1.570312 3.453125 -1.394531 3.453125 -1.1875 Z M 3.453125 -1.1875 "/></g></g></g><g fill="#2b46bd" fill-opacity="1"><g transform="translate(48.012714, 14.022074)"><g><path d="M 4.171875 -1.953125 C 4.171875 -1.316406 4 -0.820312 3.65625 -0.46875 C 3.3125 -0.113281 2.832031 0.0625 2.21875 0.0625 C 1.632812 0.0625 1.164062 -0.113281 0.8125 -0.46875 C 0.46875 -0.832031 0.296875 -1.328125 0.296875 -1.953125 C 0.296875 -2.578125 0.460938 -3.066406 0.796875 -3.421875 C 1.140625 -3.773438 1.625 -3.953125 2.25 -3.953125 C 2.625 -3.953125 2.957031 -3.867188 3.25 -3.703125 C 3.539062 -3.546875 3.765625 -3.316406 3.921875 -3.015625 C 4.085938 -2.710938 4.171875 -2.359375 4.171875 -1.953125 Z M 1.65625 -1.953125 C 1.65625 -1.617188 1.695312 -1.363281 1.78125 -1.1875 C 1.875 -1.007812 2.023438 -0.921875 2.234375 -0.921875 C 2.441406 -0.921875 2.585938 -1.007812 2.671875 -1.1875 C 2.765625 -1.363281 2.8125 -1.617188 2.8125 -1.953125 C 2.8125 -2.285156 2.765625 -2.535156 2.671875 -2.703125 C 2.585938 -2.867188 2.441406 -2.953125 2.234375 -2.953125 C 2.023438 -2.953125 1.875 -2.867188 1.78125 -2.703125 C 1.695312 -2.535156 1.65625 -2.285156 1.65625 -1.953125 Z M 1.65625 -1.953125 "/></g></g></g><g fill="#2b46bd" fill-opacity="1"><g transform="translate(26.004268, 23.712291)"><g><path d="M 4.796875 -2.609375 C 4.796875 -1.773438 4.5625 -1.128906 4.09375 -0.671875 C 3.632812 -0.222656 2.988281 0 2.15625 0 L 0.546875 0 L 0.546875 -5.015625 L 2.28125 -5.015625 C 3.082031 -5.015625 3.703125 -4.804688 4.140625 -4.390625 C 4.578125 -3.984375 4.796875 -3.390625 4.796875 -2.609375 Z M 3.390625 -2.5625 C 3.390625 -3.019531 3.296875 -3.359375 3.109375 -3.578125 C 2.929688 -3.804688 2.65625 -3.921875 2.28125 -3.921875 L 1.890625 -3.921875 L 1.890625 -1.109375 L 2.203125 -1.109375 C 2.609375 -1.109375 2.90625 -1.226562 3.09375 -1.46875 C 3.289062 -1.707031 3.390625 -2.070312 3.390625 -2.5625 Z M 3.390625 -2.5625 "/></g></g></g><g fill="#2b46bd" fill-opacity="1"><g transform="translate(31.150596, 23.712291)"><g><path d="M 1.8125 0 L 0.46875 0 L 0.46875 -3.875 L 1.8125 -3.875 Z M 0.4375 -4.84375 C 0.4375 -5.050781 0.488281 -5.203125 0.59375 -5.296875 C 0.707031 -5.390625 0.890625 -5.4375 1.140625 -5.4375 C 1.390625 -5.4375 1.570312 -5.382812 1.6875 -5.28125 C 1.800781 -5.1875 1.859375 -5.039062 1.859375 -4.84375 C 1.859375 -4.457031 1.617188 -4.265625 1.140625 -4.265625 C 0.671875 -4.265625 0.4375 -4.457031 0.4375 -4.84375 Z M 0.4375 -4.84375 "/></g></g></g><g fill="#2b46bd" fill-opacity="1"><g transform="translate(33.431005, 23.712291)"><g><path d="M 4.125 -3.875 L 4.125 -3.234375 L 3.59375 -3.03125 C 3.664062 -2.90625 3.703125 -2.753906 3.703125 -2.578125 C 3.703125 -2.160156 3.554688 -1.832031 3.265625 -1.59375 C 2.972656 -1.363281 2.535156 -1.25 1.953125 -1.25 C 1.804688 -1.25 1.691406 -1.257812 1.609375 -1.28125 C 1.578125 -1.226562 1.5625 -1.171875 1.5625 -1.109375 C 1.5625 -1.046875 1.613281 -0.992188 1.71875 -0.953125 C 1.820312 -0.921875 1.960938 -0.90625 2.140625 -0.90625 L 2.78125 -0.90625 C 3.65625 -0.90625 4.09375 -0.539062 4.09375 0.1875 C 4.09375 0.65625 3.890625 1.019531 3.484375 1.28125 C 3.078125 1.550781 2.507812 1.6875 1.78125 1.6875 C 1.238281 1.6875 0.816406 1.59375 0.515625 1.40625 C 0.210938 1.226562 0.0625 0.960938 0.0625 0.609375 C 0.0625 0.148438 0.351562 -0.144531 0.9375 -0.28125 C 0.8125 -0.332031 0.703125 -0.410156 0.609375 -0.515625 C 0.523438 -0.628906 0.484375 -0.742188 0.484375 -0.859375 C 0.484375 -0.972656 0.515625 -1.078125 0.578125 -1.171875 C 0.648438 -1.265625 0.789062 -1.375 1 -1.5 C 0.800781 -1.59375 0.644531 -1.734375 0.53125 -1.921875 C 0.414062 -2.109375 0.359375 -2.335938 0.359375 -2.609375 C 0.359375 -3.035156 0.5 -3.363281 0.78125 -3.59375 C 1.070312 -3.832031 1.484375 -3.953125 2.015625 -3.953125 C 2.085938 -3.953125 2.207031 -3.941406 2.375 -3.921875 C 2.550781 -3.910156 2.679688 -3.894531 2.765625 -3.875 Z M 1.203125 0.484375 C 1.203125 0.585938 1.257812 0.671875 1.375 0.734375 C 1.5 0.804688 1.660156 0.84375 1.859375 0.84375 C 2.179688 0.84375 2.4375 0.800781 2.625 0.71875 C 2.820312 0.644531 2.921875 0.546875 2.921875 0.421875 C 2.921875 0.316406 2.859375 0.242188 2.734375 0.203125 C 2.617188 0.160156 2.453125 0.140625 2.234375 0.140625 L 1.71875 0.140625 C 1.570312 0.140625 1.445312 0.171875 1.34375 0.234375 C 1.25 0.296875 1.203125 0.378906 1.203125 0.484375 Z M 1.625 -2.609375 C 1.625 -2.210938 1.757812 -2.015625 2.03125 -2.015625 C 2.164062 -2.015625 2.265625 -2.0625 2.328125 -2.15625 C 2.398438 -2.257812 2.4375 -2.410156 2.4375 -2.609375 C 2.4375 -3.003906 2.300781 -3.203125 2.03125 -3.203125 C 1.757812 -3.203125 1.625 -3.003906 1.625 -2.609375 Z M 1.625 -2.609375 "/></g></g></g><g fill="#2b46bd" fill-opacity="1"><g transform="translate(37.680236, 23.712291)"><g><path d="M 1.8125 0 L 0.46875 0 L 0.46875 -3.875 L 1.8125 -3.875 Z M 0.4375 -4.84375 C 0.4375 -5.050781 0.488281 -5.203125 0.59375 -5.296875 C 0.707031 -5.390625 0.890625 -5.4375 1.140625 -5.4375 C 1.390625 -5.4375 1.570312 -5.382812 1.6875 -5.28125 C 1.800781 -5.1875 1.859375 -5.039062 1.859375 -4.84375 C 1.859375 -4.457031 1.617188 -4.265625 1.140625 -4.265625 C 0.671875 -4.265625 0.4375 -4.457031 0.4375 -4.84375 Z M 0.4375 -4.84375 "/></g></g></g><g fill="#2b46bd" fill-opacity="1"><g transform="translate(39.960645, 23.712291)"><g><path d="M 2.359375 -0.984375 C 2.546875 -0.984375 2.765625 -1.03125 3.015625 -1.125 L 3.015625 -0.140625 C 2.828125 -0.0664062 2.648438 -0.015625 2.484375 0.015625 C 2.328125 0.046875 2.140625 0.0625 1.921875 0.0625 C 1.472656 0.0625 1.148438 -0.046875 0.953125 -0.265625 C 0.753906 -0.484375 0.65625 -0.820312 0.65625 -1.28125 L 0.65625 -2.875 L 0.1875 -2.875 L 0.1875 -3.421875 L 0.78125 -3.84375 L 1.125 -4.65625 L 2 -4.65625 L 2 -3.875 L 2.953125 -3.875 L 2.953125 -2.875 L 2 -2.875 L 2 -1.359375 C 2 -1.109375 2.117188 -0.984375 2.359375 -0.984375 Z M 2.359375 -0.984375 "/></g></g></g><g fill="#2b46bd" fill-opacity="1"><g transform="translate(43.186089, 23.712291)"><g><path d="M 3 0 L 2.734375 -0.515625 L 2.703125 -0.515625 C 2.523438 -0.285156 2.34375 -0.128906 2.15625 -0.046875 C 1.96875 0.0234375 1.726562 0.0625 1.4375 0.0625 C 1.070312 0.0625 0.78125 -0.046875 0.5625 -0.265625 C 0.351562 -0.484375 0.25 -0.789062 0.25 -1.1875 C 0.25 -1.601562 0.390625 -1.910156 0.671875 -2.109375 C 0.960938 -2.304688 1.382812 -2.421875 1.9375 -2.453125 L 2.578125 -2.46875 L 2.578125 -2.53125 C 2.578125 -2.84375 2.421875 -3 2.109375 -3 C 1.828125 -3 1.46875 -2.90625 1.03125 -2.71875 L 0.640625 -3.59375 C 1.097656 -3.832031 1.671875 -3.953125 2.359375 -3.953125 C 2.859375 -3.953125 3.242188 -3.828125 3.515625 -3.578125 C 3.785156 -3.328125 3.921875 -2.984375 3.921875 -2.546875 L 3.921875 0 Z M 2 -0.875 C 2.164062 -0.875 2.304688 -0.925781 2.421875 -1.03125 C 2.535156 -1.132812 2.59375 -1.269531 2.59375 -1.4375 L 2.59375 -1.734375 L 2.28125 -1.71875 C 1.84375 -1.707031 1.625 -1.546875 1.625 -1.234375 C 1.625 -0.992188 1.75 -0.875 2 -0.875 Z M 2 -0.875 "/></g></g></g><g fill="#2b46bd" fill-opacity="1"><g transform="translate(47.555161, 23.712291)"><g><path d="M 1.796875 0 L 0.46875 0 L 0.46875 -5.328125 L 1.796875 -5.328125 Z M 1.796875 0 "/></g></g></g><g fill="#eeba2b" fill-opacity="1"><g transform="translate(23.337792, 13.953799)"><g><path d="M 0.5625 0 L 0.5625 -5.171875 L 1.953125 -5.171875 L 1.953125 0 Z M 0.5625 0 "/></g></g></g><g fill="#eeba2b" fill-opacity="1"><g transform="translate(25.854386, 13.953799)"><g><path d="M 5.390625 0 L 5.390625 -2.171875 C 5.390625 -2.441406 5.351562 -2.644531 5.28125 -2.78125 C 5.207031 -2.914062 5.085938 -2.984375 4.921875 -2.984375 C 4.710938 -2.984375 4.554688 -2.890625 4.453125 -2.703125 C 4.359375 -2.523438 4.3125 -2.242188 4.3125 -1.859375 L 4.3125 0 L 2.921875 0 L 2.921875 -2.171875 C 2.921875 -2.441406 2.882812 -2.644531 2.8125 -2.78125 C 2.75 -2.914062 2.640625 -2.984375 2.484375 -2.984375 C 2.265625 -2.984375 2.101562 -2.882812 2 -2.6875 C 1.90625 -2.5 1.859375 -2.1875 1.859375 -1.75 L 1.859375 0 L 0.484375 0 L 0.484375 -4 L 1.515625 -4 L 1.6875 -3.5 L 1.765625 -3.5 C 1.878906 -3.6875 2.035156 -3.828125 2.234375 -3.921875 C 2.429688 -4.023438 2.660156 -4.078125 2.921875 -4.078125 C 3.492188 -4.078125 3.898438 -3.898438 4.140625 -3.546875 L 4.25 -3.546875 C 4.363281 -3.710938 4.519531 -3.84375 4.71875 -3.9375 C 4.914062 -4.03125 5.140625 -4.078125 5.390625 -4.078125 C 5.859375 -4.078125 6.203125 -3.953125 6.421875 -3.703125 C 6.648438 -3.460938 6.765625 -3.097656 6.765625 -2.609375 L 6.765625 0 Z M 5.390625 0 "/></g></g></g><g fill="#eeba2b" fill-opacity="1"><g transform="translate(33.082977, 13.953799)"><g><path d="M 2.875 0.078125 C 2.675781 0.078125 2.492188 0.046875 2.328125 -0.015625 C 2.171875 -0.0859375 2.015625 -0.210938 1.859375 -0.390625 L 1.796875 -0.390625 C 1.835938 -0.109375 1.859375 0.0625 1.859375 0.125 L 1.859375 1.734375 L 0.484375 1.734375 L 0.484375 -4 L 1.59375 -4 L 1.796875 -3.5 L 1.859375 -3.5 C 2.117188 -3.882812 2.472656 -4.078125 2.921875 -4.078125 C 3.359375 -4.078125 3.703125 -3.890625 3.953125 -3.515625 C 4.210938 -3.148438 4.34375 -2.648438 4.34375 -2.015625 C 4.34375 -1.367188 4.207031 -0.859375 3.9375 -0.484375 C 3.675781 -0.109375 3.320312 0.078125 2.875 0.078125 Z M 2.421875 -2.984375 C 2.210938 -2.984375 2.066406 -2.910156 1.984375 -2.765625 C 1.910156 -2.617188 1.867188 -2.40625 1.859375 -2.125 L 1.859375 -2.015625 C 1.859375 -1.671875 1.90625 -1.421875 2 -1.265625 C 2.09375 -1.117188 2.238281 -1.046875 2.4375 -1.046875 C 2.601562 -1.046875 2.726562 -1.117188 2.8125 -1.265625 C 2.894531 -1.421875 2.9375 -1.675781 2.9375 -2.03125 C 2.9375 -2.375 2.894531 -2.617188 2.8125 -2.765625 C 2.726562 -2.910156 2.597656 -2.984375 2.421875 -2.984375 Z M 2.421875 -2.984375 "/></g></g></g><g fill="#eeba2b" fill-opacity="1"><g transform="translate(37.731441, 13.953799)"><g><path d="M 3.328125 0 L 3.15625 -0.5 L 3.078125 -0.5 C 2.960938 -0.3125 2.800781 -0.164062 2.59375 -0.0625 C 2.382812 0.03125 2.140625 0.078125 1.859375 0.078125 C 1.421875 0.078125 1.078125 -0.0507812 0.828125 -0.3125 C 0.585938 -0.570312 0.46875 -0.929688 0.46875 -1.390625 L 0.46875 -4 L 1.84375 -4 L 1.84375 -1.8125 C 1.84375 -1.550781 1.878906 -1.351562 1.953125 -1.21875 C 2.035156 -1.082031 2.160156 -1.015625 2.328125 -1.015625 C 2.566406 -1.015625 2.734375 -1.109375 2.828125 -1.296875 C 2.929688 -1.484375 2.984375 -1.800781 2.984375 -2.25 L 2.984375 -4 L 4.375 -4 L 4.375 0 Z M 3.328125 0 "/></g></g></g><g fill="#eeba2b" fill-opacity="1"><g transform="translate(42.574032, 13.953799)"><g><path d="M 1.859375 0 L 0.484375 0 L 0.484375 -5.5 L 1.859375 -5.5 Z M 1.859375 0 "/></g></g></g><g fill="#eeba2b" fill-opacity="1"><g transform="translate(44.910618, 13.953799)"><g><path d="M 3.5625 -1.234375 C 3.5625 -0.804688 3.414062 -0.476562 3.125 -0.25 C 2.832031 -0.03125 2.414062 0.078125 1.875 0.078125 C 1.570312 0.078125 1.3125 0.0546875 1.09375 0.015625 C 0.875 -0.015625 0.648438 -0.0703125 0.421875 -0.15625 L 0.421875 -1.25 C 0.640625 -1.15625 0.875 -1.078125 1.125 -1.015625 C 1.382812 -0.960938 1.613281 -0.9375 1.8125 -0.9375 C 2.113281 -0.9375 2.265625 -1.003906 2.265625 -1.140625 C 2.265625 -1.210938 2.222656 -1.273438 2.140625 -1.328125 C 2.054688 -1.378906 1.8125 -1.488281 1.40625 -1.65625 C 1.039062 -1.800781 0.785156 -1.96875 0.640625 -2.15625 C 0.492188 -2.351562 0.421875 -2.597656 0.421875 -2.890625 C 0.421875 -3.265625 0.5625 -3.554688 0.84375 -3.765625 C 1.132812 -3.972656 1.539062 -4.078125 2.0625 -4.078125 C 2.332031 -4.078125 2.582031 -4.046875 2.8125 -3.984375 C 3.039062 -3.929688 3.28125 -3.847656 3.53125 -3.734375 L 3.15625 -2.84375 C 2.976562 -2.925781 2.785156 -2.992188 2.578125 -3.046875 C 2.367188 -3.109375 2.203125 -3.140625 2.078125 -3.140625 C 1.847656 -3.140625 1.734375 -3.082031 1.734375 -2.96875 C 1.734375 -2.90625 1.769531 -2.847656 1.84375 -2.796875 C 1.925781 -2.753906 2.160156 -2.65625 2.546875 -2.5 C 2.816406 -2.382812 3.019531 -2.269531 3.15625 -2.15625 C 3.300781 -2.050781 3.40625 -1.921875 3.46875 -1.765625 C 3.53125 -1.617188 3.5625 -1.441406 3.5625 -1.234375 Z M 3.5625 -1.234375 "/></g></g></g><g fill="#eeba2b" fill-opacity="1"><g transform="translate(48.764925, 13.953799)"><g><path d="M 4.296875 -2.015625 C 4.296875 -1.359375 4.117188 -0.84375 3.765625 -0.46875 C 3.421875 -0.101562 2.929688 0.078125 2.296875 0.078125 C 1.679688 0.078125 1.191406 -0.109375 0.828125 -0.484375 C 0.472656 -0.859375 0.296875 -1.367188 0.296875 -2.015625 C 0.296875 -2.660156 0.472656 -3.164062 0.828125 -3.53125 C 1.179688 -3.894531 1.675781 -4.078125 2.3125 -4.078125 C 2.707031 -4.078125 3.054688 -3.992188 3.359375 -3.828125 C 3.660156 -3.660156 3.890625 -3.421875 4.046875 -3.109375 C 4.210938 -2.796875 4.296875 -2.429688 4.296875 -2.015625 Z M 1.703125 -2.015625 C 1.703125 -1.671875 1.75 -1.40625 1.84375 -1.21875 C 1.9375 -1.039062 2.09375 -0.953125 2.3125 -0.953125 C 2.519531 -0.953125 2.664062 -1.039062 2.75 -1.21875 C 2.84375 -1.40625 2.890625 -1.671875 2.890625 -2.015625 C 2.890625 -2.347656 2.84375 -2.601562 2.75 -2.78125 C 2.664062 -2.957031 2.515625 -3.046875 2.296875 -3.046875 C 2.085938 -3.046875 1.9375 -2.957031 1.84375 -2.78125 C 1.75 -2.613281 1.703125 -2.359375 1.703125 -2.015625 Z M 1.703125 -2.015625 "/></g></g></g><g fill="#eeba2b" fill-opacity="1"><g transform="translate(26.078057, 23.942721)"><g><path d="M 4.9375 -2.6875 C 4.9375 -1.832031 4.695312 -1.171875 4.21875 -0.703125 C 3.75 -0.234375 3.085938 0 2.234375 0 L 0.5625 0 L 0.5625 -5.171875 L 2.34375 -5.171875 C 3.175781 -5.171875 3.816406 -4.957031 4.265625 -4.53125 C 4.710938 -4.101562 4.9375 -3.488281 4.9375 -2.6875 Z M 3.5 -2.640625 C 3.5 -3.117188 3.40625 -3.46875 3.21875 -3.6875 C 3.03125 -3.914062 2.742188 -4.03125 2.359375 -4.03125 L 1.953125 -4.03125 L 1.953125 -1.140625 L 2.265625 -1.140625 C 2.691406 -1.140625 3.003906 -1.257812 3.203125 -1.5 C 3.398438 -1.75 3.5 -2.128906 3.5 -2.640625 Z M 3.5 -2.640625 "/></g></g></g><g fill="#eeba2b" fill-opacity="1"><g transform="translate(31.383024, 23.942721)"><g><path d="M 1.859375 0 L 0.484375 0 L 0.484375 -4 L 1.859375 -4 Z M 0.453125 -5 C 0.453125 -5.207031 0.507812 -5.359375 0.625 -5.453125 C 0.738281 -5.554688 0.925781 -5.609375 1.1875 -5.609375 C 1.4375 -5.609375 1.617188 -5.554688 1.734375 -5.453125 C 1.859375 -5.347656 1.921875 -5.195312 1.921875 -5 C 1.921875 -4.59375 1.675781 -4.390625 1.1875 -4.390625 C 0.695312 -4.390625 0.453125 -4.59375 0.453125 -5 Z M 0.453125 -5 "/></g></g></g><g fill="#eeba2b" fill-opacity="1"><g transform="translate(33.733727, 23.942721)"><g><path d="M 4.25 -4 L 4.25 -3.328125 L 3.703125 -3.140625 C 3.773438 -2.992188 3.8125 -2.832031 3.8125 -2.65625 C 3.8125 -2.226562 3.660156 -1.894531 3.359375 -1.65625 C 3.054688 -1.414062 2.609375 -1.296875 2.015625 -1.296875 C 1.859375 -1.296875 1.738281 -1.304688 1.65625 -1.328125 C 1.625 -1.265625 1.609375 -1.207031 1.609375 -1.15625 C 1.609375 -1.082031 1.660156 -1.023438 1.765625 -0.984375 C 1.878906 -0.953125 2.023438 -0.9375 2.203125 -0.9375 L 2.875 -0.9375 C 3.769531 -0.9375 4.21875 -0.5625 4.21875 0.1875 C 4.21875 0.675781 4.007812 1.054688 3.59375 1.328125 C 3.175781 1.597656 2.59375 1.734375 1.84375 1.734375 C 1.28125 1.734375 0.84375 1.640625 0.53125 1.453125 C 0.226562 1.265625 0.078125 0.992188 0.078125 0.640625 C 0.078125 0.160156 0.367188 -0.148438 0.953125 -0.296875 C 0.835938 -0.347656 0.734375 -0.429688 0.640625 -0.546875 C 0.546875 -0.660156 0.5 -0.773438 0.5 -0.890625 C 0.5 -1.015625 0.53125 -1.125 0.59375 -1.21875 C 0.664062 -1.3125 0.8125 -1.421875 1.03125 -1.546875 C 0.820312 -1.640625 0.660156 -1.785156 0.546875 -1.984375 C 0.429688 -2.179688 0.375 -2.421875 0.375 -2.703125 C 0.375 -3.140625 0.519531 -3.476562 0.8125 -3.71875 C 1.101562 -3.957031 1.523438 -4.078125 2.078125 -4.078125 C 2.148438 -4.078125 2.273438 -4.066406 2.453125 -4.046875 C 2.640625 -4.023438 2.773438 -4.007812 2.859375 -4 Z M 1.234375 0.5 C 1.234375 0.613281 1.296875 0.703125 1.421875 0.765625 C 1.546875 0.835938 1.707031 0.875 1.90625 0.875 C 2.238281 0.875 2.503906 0.832031 2.703125 0.75 C 2.910156 0.664062 3.015625 0.554688 3.015625 0.421875 C 3.015625 0.316406 2.953125 0.242188 2.828125 0.203125 C 2.710938 0.160156 2.539062 0.140625 2.3125 0.140625 L 1.765625 0.140625 C 1.617188 0.140625 1.492188 0.171875 1.390625 0.234375 C 1.285156 0.304688 1.234375 0.394531 1.234375 0.5 Z M 1.671875 -2.6875 C 1.671875 -2.28125 1.8125 -2.078125 2.09375 -2.078125 C 2.226562 -2.078125 2.332031 -2.125 2.40625 -2.21875 C 2.476562 -2.320312 2.515625 -2.476562 2.515625 -2.6875 C 2.515625 -3.101562 2.375 -3.3125 2.09375 -3.3125 C 1.8125 -3.3125 1.671875 -3.101562 1.671875 -2.6875 Z M 1.671875 -2.6875 "/></g></g></g><g fill="#eeba2b" fill-opacity="1"><g transform="translate(38.113943, 23.942721)"><g><path d="M 1.859375 0 L 0.484375 0 L 0.484375 -4 L 1.859375 -4 Z M 0.453125 -5 C 0.453125 -5.207031 0.507812 -5.359375 0.625 -5.453125 C 0.738281 -5.554688 0.925781 -5.609375 1.1875 -5.609375 C 1.4375 -5.609375 1.617188 -5.554688 1.734375 -5.453125 C 1.859375 -5.347656 1.921875 -5.195312 1.921875 -5 C 1.921875 -4.59375 1.675781 -4.390625 1.1875 -4.390625 C 0.695312 -4.390625 0.453125 -4.59375 0.453125 -5 Z M 0.453125 -5 "/></g></g></g><g fill="#eeba2b" fill-opacity="1"><g transform="translate(40.464647, 23.942721)"><g><path d="M 2.4375 -1.015625 C 2.625 -1.015625 2.847656 -1.0625 3.109375 -1.15625 L 3.109375 -0.15625 C 2.921875 -0.0703125 2.742188 -0.015625 2.578125 0.015625 C 2.410156 0.0546875 2.210938 0.078125 1.984375 0.078125 C 1.515625 0.078125 1.175781 -0.0351562 0.96875 -0.265625 C 0.769531 -0.492188 0.671875 -0.84375 0.671875 -1.3125 L 0.671875 -2.96875 L 0.1875 -2.96875 L 0.1875 -3.53125 L 0.796875 -3.96875 L 1.15625 -4.796875 L 2.0625 -4.796875 L 2.0625 -4 L 3.046875 -4 L 3.046875 -2.96875 L 2.0625 -2.96875 L 2.0625 -1.40625 C 2.0625 -1.144531 2.1875 -1.015625 2.4375 -1.015625 Z M 2.4375 -1.015625 "/></g></g></g><g fill="#eeba2b" fill-opacity="1"><g transform="translate(43.789516, 23.942721)"><g><path d="M 3.09375 0 L 2.828125 -0.53125 L 2.796875 -0.53125 C 2.609375 -0.300781 2.414062 -0.140625 2.21875 -0.046875 C 2.03125 0.0351562 1.78125 0.078125 1.46875 0.078125 C 1.09375 0.078125 0.796875 -0.0351562 0.578125 -0.265625 C 0.367188 -0.492188 0.265625 -0.8125 0.265625 -1.21875 C 0.265625 -1.644531 0.410156 -1.960938 0.703125 -2.171875 C 1.003906 -2.378906 1.4375 -2.5 2 -2.53125 L 2.65625 -2.546875 L 2.65625 -2.609375 C 2.65625 -2.929688 2.492188 -3.09375 2.171875 -3.09375 C 1.878906 -3.09375 1.507812 -2.992188 1.0625 -2.796875 L 0.671875 -3.71875 C 1.128906 -3.957031 1.71875 -4.078125 2.4375 -4.078125 C 2.945312 -4.078125 3.34375 -3.945312 3.625 -3.6875 C 3.90625 -3.4375 4.046875 -3.082031 4.046875 -2.625 L 4.046875 0 Z M 2.0625 -0.90625 C 2.226562 -0.90625 2.367188 -0.957031 2.484375 -1.0625 C 2.609375 -1.164062 2.671875 -1.300781 2.671875 -1.46875 L 2.671875 -1.78125 L 2.359375 -1.765625 C 1.898438 -1.753906 1.671875 -1.585938 1.671875 -1.265625 C 1.671875 -1.023438 1.800781 -0.90625 2.0625 -0.90625 Z M 2.0625 -0.90625 "/></g></g></g><g fill="#eeba2b" fill-opacity="1"><g transform="translate(48.293267, 23.942721)"><g><path d="M 1.859375 0 L 0.484375 0 L 0.484375 -5.5 L 1.859375 -5.5 Z M 1.859375 0 "/></g></g></g><g fill="#eeba2b" fill-opacity="1"><g transform="translate(40.156552, 28.915758)"><g><path d="M 2.140625 -0.84375 C 2.140625 -0.675781 2.09375 -0.523438 2 -0.390625 C 1.914062 -0.253906 1.789062 -0.148438 1.625 -0.078125 C 1.457031 -0.00390625 1.257812 0.03125 1.03125 0.03125 C 0.84375 0.03125 0.6875 0.0195312 0.5625 0 C 0.4375 -0.03125 0.304688 -0.078125 0.171875 -0.140625 L 0.171875 -0.8125 C 0.316406 -0.738281 0.46875 -0.679688 0.625 -0.640625 C 0.78125 -0.597656 0.921875 -0.578125 1.046875 -0.578125 C 1.160156 -0.578125 1.242188 -0.59375 1.296875 -0.625 C 1.347656 -0.664062 1.375 -0.71875 1.375 -0.78125 C 1.375 -0.820312 1.363281 -0.851562 1.34375 -0.875 C 1.320312 -0.90625 1.285156 -0.9375 1.234375 -0.96875 C 1.191406 -1 1.070312 -1.0625 0.875 -1.15625 C 0.6875 -1.238281 0.546875 -1.316406 0.453125 -1.390625 C 0.367188 -1.472656 0.300781 -1.5625 0.25 -1.65625 C 0.207031 -1.757812 0.1875 -1.878906 0.1875 -2.015625 C 0.1875 -2.273438 0.28125 -2.476562 0.46875 -2.625 C 0.65625 -2.769531 0.914062 -2.84375 1.25 -2.84375 C 1.539062 -2.84375 1.835938 -2.773438 2.140625 -2.640625 L 1.90625 -2.0625 C 1.644531 -2.175781 1.414062 -2.234375 1.21875 -2.234375 C 1.125 -2.234375 1.050781 -2.210938 1 -2.171875 C 0.957031 -2.140625 0.9375 -2.101562 0.9375 -2.0625 C 0.9375 -2 0.960938 -1.945312 1.015625 -1.90625 C 1.078125 -1.863281 1.234375 -1.785156 1.484375 -1.671875 C 1.734375 -1.554688 1.90625 -1.4375 2 -1.3125 C 2.09375 -1.195312 2.140625 -1.039062 2.140625 -0.84375 Z M 2.140625 -0.84375 "/></g></g></g><g fill="#eeba2b" fill-opacity="1"><g transform="translate(42.423404, 28.915758)"><g><path d="M 1.015625 0 L 0.265625 0 L 0.265625 -2.171875 L 1.015625 -2.171875 Z M 0.25 -2.703125 C 0.25 -2.816406 0.28125 -2.898438 0.34375 -2.953125 C 0.40625 -3.015625 0.503906 -3.046875 0.640625 -3.046875 C 0.773438 -3.046875 0.875 -3.015625 0.9375 -2.953125 C 1.007812 -2.898438 1.046875 -2.816406 1.046875 -2.703125 C 1.046875 -2.484375 0.910156 -2.375 0.640625 -2.375 C 0.378906 -2.375 0.25 -2.484375 0.25 -2.703125 Z M 0.25 -2.703125 "/></g></g></g><g fill="#eeba2b" fill-opacity="1"><g transform="translate(43.700666, 28.915758)"><g><path d="M 1.328125 -0.546875 C 1.421875 -0.546875 1.539062 -0.570312 1.6875 -0.625 L 1.6875 -0.078125 C 1.582031 -0.0351562 1.484375 -0.0078125 1.390625 0 C 1.304688 0.0195312 1.203125 0.03125 1.078125 0.03125 C 0.828125 0.03125 0.644531 -0.0234375 0.53125 -0.140625 C 0.414062 -0.265625 0.359375 -0.457031 0.359375 -0.71875 L 0.359375 -1.609375 L 0.09375 -1.609375 L 0.09375 -1.90625 L 0.4375 -2.15625 L 0.625 -2.609375 L 1.125 -2.609375 L 1.125 -2.171875 L 1.65625 -2.171875 L 1.65625 -1.609375 L 1.125 -1.609375 L 1.125 -0.765625 C 1.125 -0.617188 1.191406 -0.546875 1.328125 -0.546875 Z M 1.328125 -0.546875 "/></g></g></g><g fill="#eeba2b" fill-opacity="1"><g transform="translate(45.507244, 28.915758)"><g><path d="M 1.3125 0.03125 C 0.945312 0.03125 0.664062 -0.0625 0.46875 -0.25 C 0.269531 -0.4375 0.171875 -0.710938 0.171875 -1.078125 C 0.171875 -1.441406 0.257812 -1.71875 0.4375 -1.90625 C 0.625 -2.101562 0.890625 -2.203125 1.234375 -2.203125 C 1.554688 -2.203125 1.804688 -2.117188 1.984375 -1.953125 C 2.171875 -1.785156 2.265625 -1.539062 2.265625 -1.21875 L 2.265625 -0.875 L 0.921875 -0.875 C 0.921875 -0.757812 0.960938 -0.664062 1.046875 -0.59375 C 1.128906 -0.53125 1.242188 -0.5 1.390625 -0.5 C 1.523438 -0.5 1.644531 -0.507812 1.75 -0.53125 C 1.863281 -0.550781 1.988281 -0.59375 2.125 -0.65625 L 2.125 -0.125 C 2 -0.0625 1.875 -0.0195312 1.75 0 C 1.625 0.0195312 1.476562 0.03125 1.3125 0.03125 Z M 1.265625 -1.703125 C 1.171875 -1.703125 1.09375 -1.671875 1.03125 -1.609375 C 0.976562 -1.554688 0.945312 -1.472656 0.9375 -1.359375 L 1.578125 -1.359375 C 1.578125 -1.460938 1.546875 -1.546875 1.484375 -1.609375 C 1.429688 -1.671875 1.359375 -1.703125 1.265625 -1.703125 Z M 1.265625 -1.703125 "/></g></g></g><g fill="#eeba2b" fill-opacity="1"><g transform="translate(47.935193, 28.915758)"><g><path d="M 1.9375 -0.671875 C 1.9375 -0.429688 1.851562 -0.253906 1.6875 -0.140625 C 1.53125 -0.0234375 1.304688 0.03125 1.015625 0.03125 C 0.859375 0.03125 0.71875 0.0195312 0.59375 0 C 0.476562 -0.0078125 0.359375 -0.0351562 0.234375 -0.078125 L 0.234375 -0.6875 C 0.347656 -0.632812 0.472656 -0.585938 0.609375 -0.546875 C 0.753906 -0.515625 0.878906 -0.5 0.984375 -0.5 C 1.148438 -0.5 1.234375 -0.535156 1.234375 -0.609375 C 1.234375 -0.648438 1.207031 -0.6875 1.15625 -0.71875 C 1.113281 -0.75 0.984375 -0.804688 0.765625 -0.890625 C 0.566406 -0.972656 0.425781 -1.066406 0.34375 -1.171875 C 0.269531 -1.273438 0.234375 -1.40625 0.234375 -1.5625 C 0.234375 -1.769531 0.304688 -1.925781 0.453125 -2.03125 C 0.609375 -2.144531 0.832031 -2.203125 1.125 -2.203125 C 1.269531 -2.203125 1.40625 -2.1875 1.53125 -2.15625 C 1.65625 -2.125 1.785156 -2.082031 1.921875 -2.03125 L 1.71875 -1.546875 C 1.613281 -1.585938 1.503906 -1.625 1.390625 -1.65625 C 1.285156 -1.6875 1.195312 -1.703125 1.125 -1.703125 C 1 -1.703125 0.9375 -1.671875 0.9375 -1.609375 C 0.9375 -1.578125 0.957031 -1.546875 1 -1.515625 C 1.050781 -1.492188 1.175781 -1.441406 1.375 -1.359375 C 1.53125 -1.296875 1.644531 -1.234375 1.71875 -1.171875 C 1.789062 -1.109375 1.84375 -1.035156 1.875 -0.953125 C 1.914062 -0.878906 1.9375 -0.785156 1.9375 -0.671875 Z M 1.9375 -0.671875 "/></g></g></g></svg>